<svg id="logos" xmlns="http://www.w3.org/2000/svg" viewBox="0 0 256 256"><defs><style>.cls-1{fill:#968450;}.cls-2{fill:#29673b;}</style></defs><title>acm-color</title><g id="acm-color"><polygon class="cls-1" points="201.58 164 237.58 128 201.58 92 182.49 92 218.49 128 182.49 164 201.58 164"/><polygon class="cls-2" points="168.99 177.5 130.66 215.82 92.34 177.5 73.25 177.5 130.66 234.91 188.08 177.5 168.99 177.5"/><polygon class="cls-2" points="92.34 78.5 130.66 40.18 168.99 78.5 188.08 78.5 130.66 21.09 73.25 78.5 92.34 78.5"/><path class="cls-2" d="M45.4,138.07v-9.21c-2.33.23-4.21.44-5.64.61a19,19,0,0,0-4.24,1,5.94,5.94,0,0,0-2.81,1.92,5.38,5.38,0,0,0-1,3.39c0,2.08.57,3.5,1.67,4.28a8.65,8.65,0,0,0,4.93,1.15,9.13,9.13,0,0,0,3.68-.82,11.4,11.4,0,0,0,3.41-2.32Zm0,6.92-2.54,2.12a14.64,14.64,0,0,1-3,1.91,19.14,19.14,0,0,1-3.61,1.36,20.66,20.66,0,0,1-4.91.46,13.11,13.11,0,0,1-9.76-4,13.62,13.62,0,0,1-3.88-10,14.45,14.45,0,0,1,2-8,13.53,13.53,0,0,1,5.68-4.82,29.91,29.91,0,0,1,9-2.54c3.48-.47,7.2-.84,11.21-1.1v-.24c0-2.45-.91-4.13-2.71-5.07s-4.5-1.41-8.11-1.41a22,22,0,0,0-5.71.9,44.66,44.66,0,0,0-6.39,2.29H21.39V106.18c1.37-.4,3.58-.86,6.65-1.41a53.1,53.1,0,0,1,9.25-.81q11.49,0,16.73,3.83t5.24,11.65V149.7H45.4V145"/><path class="cls-2" d="M89.68,150.84a34.52,34.52,0,0,1-10.09-1.39,21.26,21.26,0,0,1-7.93-4.27,19.34,19.34,0,0,1-5.2-7.24,26.13,26.13,0,0,1-1.86-10.3,26.14,26.14,0,0,1,2-10.83,20.37,20.37,0,0,1,5.47-7.35,21.63,21.63,0,0,1,7.82-4.09A33.11,33.11,0,0,1,89.28,104a32.61,32.61,0,0,1,7.38.86,33.12,33.12,0,0,1,7.41,2.71V119.5h-1.79a25.74,25.74,0,0,0-2-1.74A19.86,19.86,0,0,0,97.6,116a17.62,17.62,0,0,0-3.4-1.4A14.82,14.82,0,0,0,90,114a9.84,9.84,0,0,0-8.22,3.69q-2.92,3.69-2.92,9.92,0,6.67,3.11,10a10.93,10.93,0,0,0,8.27,3.28,16.34,16.34,0,0,0,4.6-.6,15.7,15.7,0,0,0,3.41-1.4,16.07,16.07,0,0,0,2.38-1.72c.66-.58,1.23-1.11,1.7-1.58h1.79v11.84l-2.76,1.19a26,26,0,0,1-3.18,1.1,36.84,36.84,0,0,1-3.8.84,30,30,0,0,1-4.65.3"/><path class="cls-2" d="M164.5,149.7V127.48c0-2.19,0-4-.12-5.54a11.29,11.29,0,0,0-.71-3.69,4,4,0,0,0-1.85-2.07,8.49,8.49,0,0,0-6.65,0,22.28,22.28,0,0,0-3.39,2V149.7H137.92V127.48c0-2.16,0-4-.13-5.52a11.78,11.78,0,0,0-.74-3.71,4,4,0,0,0-1.85-2.07,7.51,7.51,0,0,0-3.47-.66,7.68,7.68,0,0,0-3.34.79,25.67,25.67,0,0,0-3.18,1.87V149.7H111.35V105.28h13.86v4.9a37.08,37.08,0,0,1,6.41-4.51,13.88,13.88,0,0,1,6.76-1.63,13.06,13.06,0,0,1,7.15,1.95,12.11,12.11,0,0,1,4.71,5.77,41.33,41.33,0,0,1,7.54-5.72,14.48,14.48,0,0,1,7.18-2,14.65,14.65,0,0,1,5.53,1,10.55,10.55,0,0,1,4.15,3,14,14,0,0,1,2.79,5.09,26.17,26.17,0,0,1,.93,7.69V149.7H164.5"/></g></svg>