<svg id="logos" xmlns="http://www.w3.org/2000/svg" viewBox="0 0 256 256"><defs><style>.cls-1{fill:#fff;}</style></defs><title>acm-white</title><g id="acm-white"><path class="cls-1" d="M182.49,164l36-36-36-36h19.09l36,36-36,36ZM169,177.5l-38.33,38.32L92.34,177.5H73.25l57.41,57.41,57.42-57.41Zm-76.65-99,38.32-38.32L169,78.5h19.09L130.66,21.09,73.25,78.5ZM45.4,138.07A11.4,11.4,0,0,1,42,140.39a9.13,9.13,0,0,1-3.68.82,8.65,8.65,0,0,1-4.93-1.15c-1.1-.78-1.67-2.2-1.67-4.28a5.38,5.38,0,0,1,1-3.39,5.94,5.94,0,0,1,2.81-1.92,19,19,0,0,1,4.24-1c1.43-.17,3.31-.38,5.64-.61v9.21Zm0,6.92v4.71H59.26V119.44q0-7.83-5.24-11.65T37.29,104a53.1,53.1,0,0,0-9.25.81c-3.07.55-5.28,1-6.65,1.41v10.76h1.18A44.66,44.66,0,0,1,29,114.65a22,22,0,0,1,5.71-.9q5.41,0,8.11,1.41c1.8.94,2.71,2.62,2.71,5.07v.24c-4,.26-7.73.63-11.21,1.1a29.91,29.91,0,0,0-9,2.54,13.53,13.53,0,0,0-5.68,4.82,14.45,14.45,0,0,0-2,8,13.62,13.62,0,0,0,3.88,10,13.11,13.11,0,0,0,9.76,4,20.66,20.66,0,0,0,4.91-.46A19.14,19.14,0,0,0,39.84,149a14.64,14.64,0,0,0,3-1.91L45.4,145m44.28,5.85a30,30,0,0,0,4.65-.3,36.84,36.84,0,0,0,3.8-.84,26,26,0,0,0,3.18-1.1l2.76-1.19V135.57h-1.79c-.47.47-1,1-1.7,1.58a16.07,16.07,0,0,1-2.38,1.72,15.7,15.7,0,0,1-3.41,1.4,16.34,16.34,0,0,1-4.6.6,10.93,10.93,0,0,1-8.27-3.28q-3.11-3.27-3.11-10,0-6.24,2.92-9.92A9.84,9.84,0,0,1,90,114a14.82,14.82,0,0,1,4.25.57,17.62,17.62,0,0,1,3.4,1.4,19.86,19.86,0,0,1,2.64,1.76,25.74,25.74,0,0,1,2,1.74h1.79V107.61a33.12,33.12,0,0,0-7.41-2.71,32.61,32.61,0,0,0-7.38-.86,33.11,33.11,0,0,0-9.37,1.33,21.63,21.63,0,0,0-7.82,4.09,20.37,20.37,0,0,0-5.47,7.35,26.14,26.14,0,0,0-2,10.83,26.13,26.13,0,0,0,1.86,10.3,19.34,19.34,0,0,0,5.2,7.24,21.26,21.26,0,0,0,7.93,4.27,34.52,34.52,0,0,0,10.09,1.39m74.82-1.14h13.86V120.78a26.17,26.17,0,0,0-.93-7.69,14,14,0,0,0-2.79-5.09,10.55,10.55,0,0,0-4.15-3,14.65,14.65,0,0,0-5.53-1,14.48,14.48,0,0,0-7.18,2,41.33,41.33,0,0,0-7.54,5.72,12.11,12.11,0,0,0-4.71-5.77,13.06,13.06,0,0,0-7.15-1.95,13.88,13.88,0,0,0-6.76,1.63,37.08,37.08,0,0,0-6.41,4.51v-4.9H111.35V149.7h13.86V118.18a25.67,25.67,0,0,1,3.18-1.87,7.68,7.68,0,0,1,3.34-.79,7.51,7.51,0,0,1,3.47.66,4,4,0,0,1,1.85,2.07,11.78,11.78,0,0,1,.74,3.71c.09,1.52.13,3.36.13,5.52V149.7h13.86V118.18a22.28,22.28,0,0,1,3.39-2,8.49,8.49,0,0,1,6.65,0,4,4,0,0,1,1.85,2.07,11.29,11.29,0,0,1,.71,3.69c.08,1.5.12,3.35.12,5.54V149.7"/></g></svg>